<svg width="18" height="19" viewBox="0 0 18 19" fill="none" xmlns="http://www.w3.org/2000/svg">
<g clip-path="url(#clip0_16_252)">
<path d="M1.666 11.434L7.9905 17.3385C8.253 17.5835 8.5995 17.72 8.96 17.72C9.3205 17.72 9.667 17.5835 9.9295 17.3385L16.254 11.434C17.318 10.4435 17.92 9.05398 17.92 7.60148V7.39848C17.92 4.95198 16.1525 2.86598 13.741 2.46348C12.145 2.19748 10.521 2.71898 9.38 3.85998L8.96 4.27998L8.54 3.85998C7.399 2.71898 5.775 2.19748 4.179 2.46348C1.7675 2.86598 0 4.95198 0 7.39848V7.60148C0 9.05398 0.602 10.4435 1.666 11.434Z" fill="#4975CC"/>
</g>
<defs>
<clipPath id="clip0_16_252">
<rect width="17.92" height="17.92" fill="white" transform="translate(0 0.920044)"/>
</clipPath>
</defs>
</svg>
