<svg width="55" height="70" viewBox="0 0 55 70" fill="none" xmlns="http://www.w3.org/2000/svg">
<g filter="url(#filter0_d_8_452)">
<path d="M29.884 60.3439C36.04 52.6399 50.08 33.9679 50.08 23.4799C50.08 10.7599 39.76 0.439941 27.04 0.439941C14.32 0.439941 4 10.7599 4 23.4799C4 33.9679 18.04 52.6399 24.196 60.3439C25.672 62.1799 28.408 62.1799 29.884 60.3439Z" fill="#586887"/>
</g>
<g clip-path="url(#clip0_8_452)">
<path d="M32.8416 11.4399C33.4934 11.4399 34.1185 11.6989 34.5794 12.1598C35.0403 12.6206 35.2992 13.2457 35.2992 13.8975C35.2992 14.5493 35.0403 15.1744 34.5794 15.6353C34.1185 16.0962 33.4934 16.3551 32.8416 16.3551C32.1898 16.3551 31.5647 16.0962 31.1038 15.6353C30.6429 15.1744 30.384 14.5493 30.384 13.8975C30.384 13.2457 30.6429 12.6206 31.1038 12.1598C31.5647 11.6989 32.1898 11.4399 32.8416 11.4399ZM27.271 19.6319C26.5491 19.6319 25.863 19.9187 25.351 20.4255L24.1683 21.6083C23.5283 22.2483 22.489 22.2483 21.849 21.6083C21.209 20.9683 21.209 19.9289 21.849 19.2889L23.0317 18.1062C24.1581 16.9849 25.6838 16.3551 27.271 16.3551C27.8701 16.3551 28.464 16.4422 29.0323 16.6214L31.5258 17.3894C33.3894 17.9628 34.8998 19.335 35.6474 21.1321L35.9699 21.9001C36.2259 22.5094 36.8198 22.9087 37.4803 22.9087H38.5709C39.4771 22.9087 40.2093 23.6409 40.2093 24.5471C40.2093 25.4534 39.4771 26.1855 38.5709 26.1855H37.4803C35.4938 26.1855 33.7069 24.9926 32.944 23.1596L32.6829 22.5299L31.1008 26.7487L34.0038 28.5612C34.9306 29.1398 35.3658 30.2662 35.0637 31.3209L33.5994 36.4665C33.3485 37.3369 32.4422 37.8387 31.5718 37.5929C30.7014 37.3471 30.1997 36.4358 30.4454 35.5654L31.7459 31.0188L27.3325 28.2591C26.0474 27.4553 25.4842 25.8783 25.9603 24.4447L27.5578 19.6473C27.4605 19.6371 27.3683 19.6319 27.271 19.6319ZM24.5216 27.3478C24.9005 28.2745 25.5661 29.0835 26.4621 29.6467L26.9485 29.9539L26.3597 31.2799C25.9654 32.1657 25.0848 32.7391 24.112 32.7391H20.5536C19.6474 32.7391 18.9152 32.007 18.9152 31.1007C18.9152 30.1945 19.6474 29.4623 20.5536 29.4623H23.5846L24.5216 27.3478ZM14.8192 16.3449H21.3728C21.8234 16.3449 22.192 16.7135 22.192 17.1641C22.192 17.6147 21.8234 17.9833 21.3728 17.9833H14.8192C14.3686 17.9833 14 17.6147 14 17.1641C14 16.7135 14.3686 16.3449 14.8192 16.3449ZM14 20.4409C14 19.9903 14.3686 19.6217 14.8192 19.6217H18.096C18.5466 19.6217 18.9152 19.9903 18.9152 20.4409C18.9152 20.8915 18.5466 21.2601 18.096 21.2601H14.8192C14.3686 21.2601 14 20.8915 14 20.4409ZM14.8192 22.8985H21.3728C21.8234 22.8985 22.192 23.2671 22.192 23.7177C22.192 24.1683 21.8234 24.5369 21.3728 24.5369H14.8192C14.3686 24.5369 14 24.1683 14 23.7177C14 23.2671 14.3686 22.8985 14.8192 22.8985Z" fill="white"/>
</g>
<defs>
<filter id="filter0_d_8_452" x="0" y="0.439941" width="54.0801" height="69.281" filterUnits="userSpaceOnUse" color-interpolation-filters="sRGB">
<feFlood flood-opacity="0" result="BackgroundImageFix"/>
<feColorMatrix in="SourceAlpha" type="matrix" values="0 0 0 0 0 0 0 0 0 0 0 0 0 0 0 0 0 0 127 0" result="hardAlpha"/>
<feOffset dy="4"/>
<feGaussianBlur stdDeviation="2"/>
<feComposite in2="hardAlpha" operator="out"/>
<feColorMatrix type="matrix" values="0 0 0 0 0.288 0 0 0 0 0.458667 0 0 0 0 0.8 0 0 0 0.2 0"/>
<feBlend mode="normal" in2="BackgroundImageFix" result="effect1_dropShadow_8_452"/>
<feBlend mode="normal" in="SourceGraphic" in2="effect1_dropShadow_8_452" result="shape"/>
</filter>
<clipPath id="clip0_8_452">
<rect width="26.2144" height="26.2144" fill="white" transform="translate(14 11.4399)"/>
</clipPath>
</defs>
</svg>
