<svg width="18" height="18" viewBox="0 0 18 18" fill="none" xmlns="http://www.w3.org/2000/svg">
<g clip-path="url(#clip0_16_251)">
<path d="M7.903 16.387L7.8155 16.3065L1.6835 10.612C0.609 9.61452 0 8.21452 0 6.74802V6.63252C0 4.16852 1.75 2.05452 4.172 1.59252C5.551 1.32652 6.9615 1.64502 8.085 2.43602C8.4 2.66002 8.694 2.91902 8.96 3.21652C9.107 3.04852 9.2645 2.89452 9.4325 2.75102C9.562 2.63902 9.695 2.53402 9.835 2.43602C10.9585 1.64502 12.369 1.32652 13.748 1.58902C16.17 2.05102 17.92 4.16852 17.92 6.63252V6.74802C17.92 8.21452 17.311 9.61452 16.2365 10.612L10.1045 16.3065L10.017 16.387C9.73 16.653 9.352 16.8035 8.96 16.8035C8.568 16.8035 8.19 16.6565 7.903 16.387ZM8.3685 5.07502C8.3545 5.06452 8.344 5.05052 8.3335 5.03652L7.7105 4.33652L7.707 4.33302C6.8985 3.42652 5.677 3.01352 4.487 3.24102C2.856 3.55252 1.68 4.97352 1.68 6.63252V6.74802C1.68 7.74552 2.0965 8.70102 2.828 9.38002L8.96 15.0745L15.092 9.38002C15.8235 8.70102 16.24 7.74552 16.24 6.74802V6.63252C16.24 4.97702 15.064 3.55252 13.4365 3.24102C12.2465 3.01352 11.0215 3.43002 10.2165 4.33302C10.2165 4.33302 10.2165 4.33302 10.213 4.33652C10.2095 4.34002 10.213 4.33652 10.2095 4.34002L9.5865 5.04002C9.576 5.05402 9.562 5.06452 9.5515 5.07852C9.394 5.23602 9.1805 5.32352 8.96 5.32352C8.7395 5.32352 8.526 5.23602 8.3685 5.07852V5.07502Z" fill="#4975CC"/>
</g>
<defs>
<clipPath id="clip0_16_251">
<rect width="17.92" height="17.92" fill="white"/>
</clipPath>
</defs>
</svg>
